HIERARCHY
ROOT Hips
{
    OFFSET 0.000000 0.000000 0.000000
    CHANNELS 6 Xposition Yposition Zposition Zrotation Xrotation Yrotation
    JOINT Spine
    {
        OFFSET -0.000000 14.517291 0.000000
        CHANNELS 3 Zrotation Xrotation Yrotation
        JOINT Spine1
        {
            OFFSET -0.000000 37.558300 0.000000
            CHANNELS 3 Zrotation Xrotation Yrotation
            JOINT Neck
            {
                OFFSET -0.000000 37.404057 3.400369
                CHANNELS 3 Zrotation Xrotation Yrotation
                JOINT Head
                {
                    OFFSET -0.000000 24.785618 -3.540803
                    CHANNELS 3 Zrotation Xrotation Yrotation
                    End Site
                    {
                        OFFSET -0.000000 35.408028 0.000000
                    }
                }
            }
            JOINT LeftShoulder
            {
                OFFSET 6.992933 33.973492 -0.192664
                CHANNELS 3 Zrotation Xrotation Yrotation
                JOINT LeftArm
                {
                    OFFSET 21.527611 0.000000 0.000000
                    CHANNELS 3 Zrotation Xrotation Yrotation
                    JOINT LeftForeArm
                    {
                        OFFSET 56.353916 0.000000 0.000000
                        CHANNELS 3 Zrotation Xrotation Yrotation
                        JOINT LeftHand
                        {
                            OFFSET 47.774071 0.000000 0.000000
                            CHANNELS 3 Zrotation Xrotation Yrotation
                            End Site
                            {
                                OFFSET 26.556021 0.000000 0.000000
                            }
                        }
                    }
                }
            }
            JOINT RightShoulder
            {
                OFFSET -7.065357 33.973492 -0.192664
                CHANNELS 3 Zrotation Xrotation Yrotation
                JOINT RightArm
                {
                    OFFSET -21.527611 0.000000 0.000000
                    CHANNELS 3 Zrotation Xrotation Yrotation
                    JOINT RightForeArm
                    {
                        OFFSET -56.353916 0.000000 0.000000
                        CHANNELS 3 Zrotation Xrotation Yrotation
                        JOINT RightHand
                        {
                            OFFSET -47.774071 0.000000 0.000000
                            CHANNELS 3 Zrotation Xrotation Yrotation
                            End Site
                            {
                                OFFSET -26.556021 0.000000 0.000000
                            }
                        }
                    }
                }
            }
        }
    }
    JOINT LeftUpLeg
    {
        OFFSET 17.704014 0.000000 0.000000
        CHANNELS 3 Zrotation Xrotation Yrotation
        JOINT LeftLeg
        {
            OFFSET -0.000000 -81.181816 0.000000
            CHANNELS 3 Zrotation Xrotation Yrotation
            JOINT LeftFoot
            {
                OFFSET -0.000000 -62.821102 0.000000
                CHANNELS 3 Zrotation Xrotation Yrotation
                JOINT LeftToeBase
                {
                    OFFSET -0.000000 -11.507608 26.556021
                    CHANNELS 3 Zrotation Xrotation Yrotation
                    End Site
                    {
                        OFFSET -0.000000 0.000000 7.081605
                    }
                }
            }
        }
    }
    JOINT RightUpLeg
    {
        OFFSET -17.704014 0.000000 0.000000
        CHANNELS 3 Zrotation Xrotation Yrotation
        JOINT RightLeg
        {
            OFFSET -0.000000 -81.181816 0.000000
            CHANNELS 3 Zrotation Xrotation Yrotation
            JOINT RightFoot
            {
                OFFSET -0.000000 -62.821102 0.000000
                CHANNELS 3 Zrotation Xrotation Yrotation
                JOINT RightToeBase
                {
                    OFFSET -0.000000 -11.507608 26.556021
                    CHANNELS 3 Zrotation Xrotation Yrotation
                    End Site
                    {
                        OFFSET -0.000000 0.000000 7.081605
                    }
                }
            }
        }
    }
}
MOTION
Frames:    5
Frame Time:    0.008333
29.192635    151.246185    -85.951904    0.818700    -2.953811    49.933037    0.306943    0.629628    -1.791826    -1.775490    2.603236    -0.557490    1.196012    10.498821    -21.216427    14.607059    -9.119846    -19.031399    2.324517    9.246699    -15.451682    -29.717554    21.635984    -51.824692    -2.422770    -28.754185    -114.279778    -11.406427    -30.564413    -16.598614    0.420695    11.000755    -4.890562    28.682194    13.748425    39.668163    -10.203650    4.479763    37.401810    -21.726528    1.066736    34.714352    3.770942    -0.623920    -14.104332    -17.857136    42.445911    -24.560137    23.933064    -28.084620    54.656914    0.000000    0.000000    0.000000    -8.416631    -30.099379    -8.535145    8.575393    16.853872    -13.772367    -2.302120    17.030483    -5.932703    0.000000    0.000000    0.000000    
29.299276    151.244232    -85.769890    0.769816    -2.930558    49.881550    0.346295    0.649080    -1.806476    -1.774578    2.591313    -0.562388    1.243586    10.511186    -21.185772    14.546397    -9.222615    -19.001785    2.314657    9.197341    -15.539629    -29.605249    21.599228    -51.847706    -2.372532    -28.883099    -114.210190    -11.554723    -30.592007    -16.699903    0.411460    10.975326    -4.870234    28.675081    13.746274    39.773113    -10.273639    4.431573    37.506470    -21.726603    1.081316    34.579517    3.800969    -0.533158    -14.110566    -17.818024    42.328136    -24.574467    23.955866    -28.108971    54.694778    0.000000    0.000000    0.000000    -8.410991    -30.179787    -8.189252    8.767962    17.001526    -14.012642    -2.325414    16.842243    -5.990992    0.000000    0.000000    0.000000    
29.397392    151.248108    -85.602829    0.727774    -2.907430    49.845352    0.362814    0.649337    -1.857846    -1.760534    2.610053    -0.579608    1.230312    10.462835    -21.155437    14.524688    -9.201172    -18.977039    2.319945    9.205745    -15.543303    -29.520739    21.483505    -51.955154    -2.338448    -28.935408    -114.115417    -11.524090    -30.594343    -16.723946    0.386491    10.943141    -4.786910    28.720844    13.613318    39.846340    -10.234449    4.489730    37.612926    -21.805092    1.127448    34.504051    3.810512    -0.444561    -14.144019    -17.751493    42.213085    -24.602589    23.968140    -28.123232    54.745705    0.000000    0.000000    0.000000    -8.432844    -30.300167    -8.202106    8.869714    17.288929    -14.013193    -2.342206    16.664845    -5.974566    0.000000    0.000000    0.000000    
29.501333    151.263474    -85.430161    0.699373    -2.895113    49.799847    0.368108    0.663459    -1.881543    -1.743432    2.619880    -0.587596    1.263485    10.411133    -21.115614    14.460108    -9.218149    -18.949335    2.322039    9.176817    -15.591383    -29.465496    21.440868    -52.017384    -2.290938    -29.022764    -114.029449    -11.634291    -30.589907    -16.814520    0.381770    10.925488    -4.807326    28.714342    13.592283    39.998798    -10.243869    4.508244    37.680614    -21.805017    1.175944    34.409916    3.815780    -0.320337    -14.193323    -17.684061    42.059563    -24.629444    23.987360    -28.122141    54.807480    0.000000    0.000000    0.000000    -8.443504    -30.389256    -8.081985    8.998578    17.534357    -14.130106    -2.331117    16.491289    -5.965622    0.000000    0.000000    0.000000    
29.606644    151.283585    -85.264481    0.684492    -2.908520    49.748413    0.390946    0.688891    -1.912310    -1.742885    2.636797    -0.597564    1.277785    10.412247    -21.085983    14.453835    -9.262712    -18.914801    2.324643    9.163931    -15.624337    -29.433342    21.405466    -52.073727    -2.284697    -29.117468    -113.986717    -11.565204    -30.684954    -16.771919    0.391160    10.882180    -4.778957    28.675926    13.666629    40.105412    -10.337934    4.411670    37.727329    -21.870186    1.109480    34.342472    3.812759    -0.167020    -14.292430    -17.613550    41.898407    -24.591444    23.977581    -28.140186    54.852215    0.000000    0.000000    0.000000    -8.439062    -30.439688    -7.774065    9.190462    17.723795    -14.418197    -2.308492    16.335859    -5.995193    0.000000    0.000000    0.000000    
